<svg xmlns="http://www.w3.org/2000/svg" xmlns:xlink="http://www.w3.org/1999/xlink" viewBox="0,0,256,256" width="100px" height="100px"><g fill="#ffffff" fill-rule="nonzero" stroke="none" stroke-width="1" stroke-linecap="butt" stroke-linejoin="miter" stroke-miterlimit="10" stroke-dasharray="" stroke-dashoffset="0" font-family="none" font-weight="none" font-size="none" text-anchor="none" style="mix-blend-mode: normal"><g transform="scale(10.66667,10.66667)"><circle cx="12" cy="12" r="10" opacity="0.35"></circle><path d="M18.248,8.09c0.196,-0.231 -0.05,-0.57 -0.33,-0.453c-0.467,0.195 -0.978,0.37 -1.34,0.442c-0.018,0.005 -0.033,0.011 -0.051,0.016c-0.549,-0.541 -1.301,-0.877 -2.133,-0.877c-1.677,0 -3.037,1.36 -3.037,3.037c0,0.088 -0.007,0.251 0,0.337c-1.896,0 -3.413,-0.832 -4.582,-1.993c-0.296,-0.294 -0.8,-0.096 -0.823,0.322c-0.007,0.114 -0.01,0.229 -0.01,0.343c0,0.946 0.739,1.874 1.89,2.45c-0.212,0.055 -0.445,0.094 -0.688,0.094c-0.223,0 -0.531,-0.092 -0.781,-0.189c-0.197,-0.076 -0.394,0.106 -0.336,0.309c0.298,1.046 1.498,1.753 2.58,1.97c-0.253,0.149 -0.763,0.164 -1.012,0.164c-0.073,0 -0.225,-0.014 -0.389,-0.033c-0.264,-0.03 -0.443,0.269 -0.287,0.484c0.531,0.73 1.537,1.134 2.504,1.151c-0.655,0.514 -1.734,0.801 -2.809,0.926c-0.38,0.044 -0.463,0.564 -0.115,0.723c0.987,0.45 1.973,0.705 3.067,0.705c5.015,0 7.866,-3.823 7.866,-7.426c0,-0.058 -0.001,-0.18 -0.003,-0.302c0,-0.012 0.003,-0.024 0.003,-0.036c0,-0.018 -0.005,-0.036 -0.005,-0.054c-0.002,-0.092 -0.004,-0.178 -0.006,-0.222c0.378,-0.273 0.721,-0.594 1.019,-0.953c0.105,-0.126 -0.021,-0.31 -0.176,-0.26c-0.336,0.109 -0.686,0.187 -1.047,0.23c0.317,-0.19 0.711,-0.53 1.031,-0.905z"></path></g></g></svg>